<svg width="600" height="146" viewBox="0 0 600 146" fill="none" xmlns="http://www.w3.org/2000/svg">
<path fill-rule="evenodd" clip-rule="evenodd" d="M301.009 0V90.7848H301.022C301.022 94.8604 304.34 100.753 307.659 100.753L301.022 100.765H289.351V90.7344C284.392 98.305 274.764 100.904 266.576 100.904C251.396 100.904 239.523 88.9426 239.523 67.3284C239.523 45.7142 257.529 33.7525 273.074 33.7525C280.77 33.7525 286.171 35.0648 289.351 36.1499V9.95542C289.338 5.87988 286.032 0 282.714 0H301.009ZM289.338 82.0912V65.8395V65.8269V48.8686C284.934 40.7428 277.931 36.3644 272.493 36.3644C262.815 36.3644 252.418 44.566 252.418 67.2527C252.418 84.4255 262.74 95.7689 274.045 95.7689C284.367 95.7689 288.228 87.1761 289.338 82.0912ZM225.492 33.5001C221.026 33.5001 219.082 35.8092 219.082 40.4399C219.082 40.4399 218.881 59.4549 215.777 70.8487C212.673 82.2552 210.338 86.8859 201.014 100.437C203.348 93.4976 204.711 81.435 204.711 70.1926C204.711 57.8903 203.6 32.516 189.948 32.516C182.806 32.516 176.876 39.2034 174.352 49.0452L174.895 49.2471C177.166 42.9509 180.75 39.2917 184.901 39.2917C192.156 39.2917 193.645 63.8837 193.645 72.1862C193.645 85.5737 191.891 98.2924 188.207 110.696C182.768 128.878 173.835 137.799 161.205 137.799C158.381 137.799 155.483 136.11 152.914 134.612C150.867 133.419 149.029 132.348 147.603 132.348C144.385 132.348 141.975 134.026 141.975 137.963C141.975 142.089 146.051 145.23 151.3 145.23C154.214 145.23 157.318 144.738 160.233 143.578C175.576 137.799 186.844 126.72 202.578 102.09C217.152 79.2774 231.132 48.3765 231.132 39.1277C231.132 35.8218 228.798 33.5128 225.505 33.5128L225.492 33.5001ZM404.702 91.5798C387.807 91.5798 378.419 74.2303 380.59 56.6285H425.143C423.742 40.6166 413.636 33.7273 398.217 33.7273C384.539 33.7273 368.792 46.1306 368.792 66.4073C368.792 88.6398 384.274 100.917 399.68 100.917C412.046 100.917 423.906 92.198 426.253 79.6812L424.651 79.1008C422.506 85.2835 416.992 91.5798 404.715 91.5798H404.702ZM398.848 36.0868C405.939 36.0868 411.39 41.5251 411.39 48.2756C411.39 52.4016 410.292 54.3573 404.765 54.3573C400.728 54.3573 380.855 54.6854 380.855 54.6854C383.189 44.3262 390.28 36.0868 398.848 36.0868ZM481.57 45.9287V90.7596C481.57 94.8351 484.888 100.715 488.207 100.728H469.911V88.3748L469.633 88.236C465.217 95.3146 458.353 100.728 449.647 100.728C441.369 100.728 436.751 94.8477 436.751 88.2108C436.751 81.0691 443.275 75.7697 452.536 70.5207C461.798 65.2717 469.911 60.7672 469.911 60.7672V48.8686C469.911 42.9004 466.214 40.1497 458.807 40.1497C452.675 40.1497 446.379 45.6006 446.379 47.3545C446.379 48.3917 446.581 49.1135 446.795 49.8751C447.034 50.7256 447.287 51.6258 447.287 53.0703C447.287 56.5276 443.893 58.4202 440.903 58.4202C437.912 58.4202 435.49 56.3383 435.49 53.146C435.49 43.7458 462.542 33.7147 469.608 33.7147C476.674 33.7147 481.57 37.3738 481.57 45.9287ZM457.432 92.299C462.681 92.299 466.958 89.5357 469.898 84.6147V63.0131C469.898 63.0131 464.435 66.3316 458.34 69.9277C452.246 73.5237 447.691 78.3058 447.691 83.4287C447.691 88.5515 452.183 92.299 457.432 92.299ZM151.867 88.2739L152.145 88.4127V100.765H170.441C167.122 100.765 163.804 94.873 163.804 90.7974V45.9287C163.804 37.3738 158.908 33.7147 151.842 33.7147C144.776 33.7147 117.724 43.7458 117.724 53.146C117.724 56.3383 120.146 58.4202 123.137 58.4202C126.127 58.4202 129.521 56.5276 129.521 53.0703C129.521 51.6258 129.268 50.7256 129.029 49.8751C128.816 49.1135 128.613 48.3917 128.613 47.3545C128.613 45.6006 134.909 40.1497 141.041 40.1497C148.448 40.1497 152.145 42.9004 152.145 48.8686V60.7672C152.145 60.7672 144.032 65.2717 134.77 70.5207C125.509 75.7697 118.985 81.0691 118.985 88.2108C118.985 94.8477 123.604 100.728 131.881 100.728C140.587 100.728 147.451 95.3146 151.867 88.236V88.2739ZM129.938 83.4287C129.938 78.2932 134.493 73.5237 140.587 69.9277C146.681 66.3316 152.145 63.0131 152.145 63.0131V84.6147C149.192 89.5357 144.915 92.299 139.679 92.299C134.442 92.299 129.938 88.5515 129.938 83.4287ZM354.067 33.7273C344.528 33.7273 338.61 43.7079 334.775 53.0199H334.623V34.2572H316.643C319.961 34.2572 323.28 40.1497 323.28 44.2253V90.7974C323.28 94.8604 319.961 100.765 316.643 100.765H341.576C338.257 100.765 334.939 94.873 334.939 90.7974V55.7705C337.55 49.0705 341.55 43.1654 345.361 43.1654C348.06 43.1654 349.438 44.4073 350.82 45.6528C352.211 46.9056 353.605 48.162 356.351 48.162C359.606 48.162 362.534 45.5754 362.534 41.2222C362.534 36.6041 358.862 33.7399 354.067 33.7399V33.7273ZM0 0.832764H50.0042C77.839 0.832764 104.185 17.4756 104.185 49.4238C104.185 81.372 84.6778 100.778 47.8592 100.778H0C4.9714 100.778 9.95542 91.9204 9.95542 85.826V15.7848C9.95542 9.67782 4.98402 0.832764 0 0.832764ZM25.0841 83.3529C25.0841 92.7896 30.3441 97.3825 44.7486 97.3839C67.2436 97.3815 87.1131 83.8799 87.1131 49.6888C87.1131 17.5135 62.786 4.17647 43.607 4.17647C24.428 4.17647 25.0841 6.43505 25.0841 6.43505V83.3529ZM593.388 90.9363V53.7769C593.388 42.3326 587.622 33.803 577.149 33.803C568.216 33.803 559.371 41.1465 554.803 49.9033H554.387C552.911 39.9731 547.687 33.803 538.615 33.803C529.542 33.803 521.24 40.604 516.496 48.9317L516.218 48.8055V34.333V34.2572H498.023C501.342 34.2572 504.66 40.1497 504.66 44.2253V90.7975C504.66 94.8604 501.342 100.765 498.023 100.765H504.66V100.753H522.956C519.675 100.753 516.395 94.9866 516.319 90.9236V50.3575C520.786 45.3861 524.382 42.5219 530.64 42.5219C539.611 42.5219 543.258 48.0359 543.258 61.6126L543.258 90.7848C543.258 94.8478 539.939 100.753 536.621 100.753L543.258 100.753H561.428C558.147 100.753 554.866 94.9992 554.791 90.9363V51.1524C559.484 45.6889 562.891 42.5219 569.213 42.5219C577.856 42.5219 581.83 48.0359 581.83 61.6126V90.7975C581.83 94.8604 578.512 100.753 575.193 100.753H600C596.719 100.753 593.439 94.9992 593.363 90.9363H593.388Z" fill="white"/>
</svg>
